<?xml version="1.0" encoding="UTF-8" standalone="no"?>
<svg
   xmlns:dc="http://purl.org/dc/elements/1.1/"
   xmlns:cc="http://creativecommons.org/ns#"
   xmlns:rdf="http://www.w3.org/1999/02/22-rdf-syntax-ns#"
   xmlns:svg="http://www.w3.org/2000/svg"
   xmlns="http://www.w3.org/2000/svg"
   xmlns:sodipodi="http://sodipodi.sourceforge.net/DTD/sodipodi-0.dtd"
   xmlns:inkscape="http://www.inkscape.org/namespaces/inkscape"
   width="134.40149mm"
   height="167.87944mm"
   viewBox="0 0 134.40149 167.87944"
   version="1.1"
   id="svg3925"
   inkscape:version="1.0.2 (e86c870879, 2021-01-15)"
   sodipodi:docname="anti-quarks.svg">
  <defs
     id="defs3919">
    <clipPath
       clipPathUnits="userSpaceOnUse"
       id="clipPath38">
      <path
         d="m 1586.667,19.37638 h 317.4803 V 80 H 1586.667 Z"
         id="path36" />
    </clipPath>
    <clipPath
       clipPathUnits="userSpaceOnUse"
       id="clipPath946">
      <path
         d="m 1236.136,707.5976 h 325.6483 v 317.2445 H 1236.136 Z"
         id="path944" />
    </clipPath>
    <clipPath
       clipPathUnits="userSpaceOnUse"
       id="clipPath958">
      <path
         d="m 1236.136,707.5976 h 325.6483 v 317.2445 H 1236.136 Z"
         id="path956" />
    </clipPath>
    <clipPath
       clipPathUnits="userSpaceOnUse"
       id="clipPath970">
      <path
         d="m 1236.136,707.5976 h 325.6483 v 317.2445 H 1236.136 Z"
         id="path968" />
    </clipPath>
    <clipPath
       clipPathUnits="userSpaceOnUse"
       id="clipPath982">
      <path
         d="m 1222.129,693.5912 h 382.5881 V 1080 H 1222.129 Z"
         id="path980" />
    </clipPath>
    <clipPath
       clipPathUnits="userSpaceOnUse"
       id="clipPath1008">
      <path
         d="m 1558.797,857.6645 h 45.9201 v 32.9928 h -45.9201 z"
         id="path1006" />
    </clipPath>
    <clipPath
       clipPathUnits="userSpaceOnUse"
       id="clipPath1018">
      <path
         d="m 1222.129,693.5912 h 382.5881 V 1080 H 1222.129 Z"
         id="path1016" />
    </clipPath>
    <clipPath
       clipPathUnits="userSpaceOnUse"
       id="clipPath1032">
      <path
         d="m 1336.301,745.4465 h 54.7611 v 32.9928 h -54.7611 z"
         id="path1030" />
    </clipPath>
    <clipPath
       clipPathUnits="userSpaceOnUse"
       id="clipPath1042">
      <path
         d="m 1222.129,693.5912 h 382.5881 V 1080 H 1222.129 Z"
         id="path1040" />
    </clipPath>
    <clipPath
       clipPathUnits="userSpaceOnUse"
       id="clipPath1058">
      <path
         d="m 1385.04,1043.521 h 54.7611 v 32.9928 H 1385.04 Z"
         id="path1056" />
    </clipPath>
    <clipPath
       clipPathUnits="userSpaceOnUse"
       id="clipPath1068">
      <path
         d="m 1236.136,707.5976 h 325.6483 v 317.2445 H 1236.136 Z"
         id="path1066" />
    </clipPath>
    <clipPath
       clipPathUnits="userSpaceOnUse"
       id="clipPath1080">
      <path
         d="m 1236.136,707.5976 h 325.6483 v 317.2445 H 1236.136 Z"
         id="path1078" />
    </clipPath>
    <clipPath
       clipPathUnits="userSpaceOnUse"
       id="clipPath1092">
      <path
         d="m 1236.136,707.5976 h 325.6483 v 317.2445 H 1236.136 Z"
         id="path1090" />
    </clipPath>
    <clipPath
       clipPathUnits="userSpaceOnUse"
       id="clipPath1104">
      <path
         d="m 1236.136,707.5976 h 325.6483 v 317.2445 H 1236.136 Z"
         id="path1102" />
    </clipPath>
    <clipPath
       clipPathUnits="userSpaceOnUse"
       id="clipPath1116">
      <path
         d="m 1236.136,707.5976 h 325.6483 v 317.2445 H 1236.136 Z"
         id="path1114" />
    </clipPath>
    <clipPath
       clipPathUnits="userSpaceOnUse"
       id="clipPath1128">
      <path
         d="m 1236.136,707.5976 h 325.6483 v 317.2445 H 1236.136 Z"
         id="path1126" />
    </clipPath>
    <clipPath
       clipPathUnits="userSpaceOnUse"
       id="clipPath1140">
      <path
         d="m 1236.136,707.5976 h 325.6483 v 317.2445 H 1236.136 Z"
         id="path1138" />
    </clipPath>
    <clipPath
       clipPathUnits="userSpaceOnUse"
       id="clipPath1152">
      <path
         d="m 1222.129,693.5912 h 382.5881 V 1080 H 1222.129 Z"
         id="path1150" />
    </clipPath>
    <clipPath
       clipPathUnits="userSpaceOnUse"
       id="clipPath1170">
      <path
         d="m 1493.172,866.2081 h 52.057 v 27.60424 h -52.057 z"
         id="path1168" />
    </clipPath>
    <clipPath
       clipPathUnits="userSpaceOnUse"
       id="clipPath1180">
      <path
         d="m 1222.129,693.5912 h 382.5881 V 1080 H 1222.129 Z"
         id="path1178" />
    </clipPath>
    <clipPath
       clipPathUnits="userSpaceOnUse"
       id="clipPath1196">
      <path
         d="m 1451.817,973.2031 h 54.7611 v 32.9928 h -54.7611 z"
         id="path1194" />
    </clipPath>
    <clipPath
       clipPathUnits="userSpaceOnUse"
       id="clipPath1206">
      <path
         d="m 1222.129,693.5912 h 382.5881 V 1080 H 1222.129 Z"
         id="path1204" />
    </clipPath>
    <clipPath
       clipPathUnits="userSpaceOnUse"
       id="clipPath1218">
      <path
         d="m 1384.623,866.5789 h 52.057 v 27.60424 h -52.057 z"
         id="path1216" />
    </clipPath>
    <clipPath
       clipPathUnits="userSpaceOnUse"
       id="clipPath1228">
      <path
         d="m 1413.242,866.5789 h 52.057 v 27.60424 h -52.057 z"
         id="path1226" />
    </clipPath>
    <clipPath
       clipPathUnits="userSpaceOnUse"
       id="clipPath1238">
      <path
         d="m 1222.129,693.5912 h 382.5881 V 1080 H 1222.129 Z"
         id="path1236" />
    </clipPath>
    <clipPath
       clipPathUnits="userSpaceOnUse"
       id="clipPath1248">
      <path
         d="m 1352.986,768.2691 h 38.3327 v 23.09496 h -38.3327 z"
         id="path1246" />
    </clipPath>
    <clipPath
       clipPathUnits="userSpaceOnUse"
       id="clipPath1258">
      <path
         d="m 1222.129,693.5912 h 382.5881 V 1080 H 1222.129 Z"
         id="path1256" />
    </clipPath>
    <clipPath
       clipPathUnits="userSpaceOnUse"
       id="clipPath1270">
      <path
         d="m 1343.268,973.2031 h 54.7611 v 32.9928 h -54.7611 z"
         id="path1268" />
    </clipPath>
    <clipPath
       clipPathUnits="userSpaceOnUse"
       id="clipPath1280">
      <path
         d="m 1276.073,866.0196 h 52.057 v 27.60424 h -52.057 z"
         id="path1278" />
    </clipPath>
    <clipPath
       clipPathUnits="userSpaceOnUse"
       id="clipPath1290">
      <path
         d="m 1297.168,873.9899 h 38.3327 v 23.09496 h -38.3327 z"
         id="path1288" />
    </clipPath>
    <clipPath
       clipPathUnits="userSpaceOnUse"
       id="clipPath1300">
      <path
         d="m 1391.1,704.5598 41.418,-90.9242 -31.735,-14.4562 -41.418,90.9241 z"
         id="path1298" />
    </clipPath>
    <clipPath
       clipPathUnits="userSpaceOnUse"
       id="clipPath1306">
      <path
         d="M 0,0 H 1920 V 1080 H 0 Z"
         id="path1304" />
    </clipPath>
    <clipPath
       clipPathUnits="userSpaceOnUse"
       id="clipPath1344">
      <path
         d="m 1502.056,704.6567 31.155,-68.3948 -31.735,-14.4563 -31.156,68.3948 z"
         id="path1342" />
    </clipPath>
    <clipPath
       clipPathUnits="userSpaceOnUse"
       id="clipPath1350">
      <path
         d="M 0,0 H 1920 V 1080 H 0 Z"
         id="path1348" />
    </clipPath>
    <clipPath
       clipPathUnits="userSpaceOnUse"
       id="clipPath1382">
      <path
         d="m 1579.875,758.6588 30.136,-66.1562 -31.736,-14.4562 -30.136,66.1561 z"
         id="path1380" />
    </clipPath>
    <clipPath
       clipPathUnits="userSpaceOnUse"
       id="clipPath1388">
      <path
         d="M 0,0 H 1920 V 1080 H 0 Z"
         id="path1386" />
    </clipPath>
    <clipPath
       clipPathUnits="userSpaceOnUse"
       id="clipPath1420">
      <path
         d="m 1603.189,1016.315 h 299.0717 v 35.778 H 1603.189 Z"
         id="path1418" />
    </clipPath>
    <clipPath
       clipPathUnits="userSpaceOnUse"
       id="clipPath1572">
      <path
         d="m 1116.053,228.8449 h 325.8373 V 546.2735 H 1116.053 Z"
         id="path1570" />
    </clipPath>
    <clipPath
       clipPathUnits="userSpaceOnUse"
       id="clipPath1584">
      <path
         d="m 1102.039,214.8305 h 382.8102 v 386.633 H 1102.039 Z"
         id="path1582" />
    </clipPath>
    <clipPath
       clipPathUnits="userSpaceOnUse"
       id="clipPath1600">
      <path
         d="m 1170.446,346.4488 h 54.7928 v 33.01195 h -54.7928 z"
         id="path1598" />
    </clipPath>
    <clipPath
       clipPathUnits="userSpaceOnUse"
       id="clipPath1610">
      <path
         d="m 1102.039,214.8305 h 382.8102 v 386.633 H 1102.039 Z"
         id="path1608" />
    </clipPath>
    <clipPath
       clipPathUnits="userSpaceOnUse"
       id="clipPath1634">
      <path
         d="m 1438.902,378.9989 h 45.9468 v 33.01195 h -45.9468 z"
         id="path1632" />
    </clipPath>
    <clipPath
       clipPathUnits="userSpaceOnUse"
       id="clipPath1644">
      <path
         d="m 1102.039,214.8305 h 382.8102 v 386.633 H 1102.039 Z"
         id="path1642" />
    </clipPath>
    <clipPath
       clipPathUnits="userSpaceOnUse"
       id="clipPath1658">
      <path
         d="m 1216.276,228.2395 h 54.7928 v 33.01195 h -54.7928 z"
         id="path1656" />
    </clipPath>
    <clipPath
       clipPathUnits="userSpaceOnUse"
       id="clipPath1668">
      <path
         d="m 1102.039,214.8305 h 382.8102 v 386.633 H 1102.039 Z"
         id="path1666" />
    </clipPath>
    <clipPath
       clipPathUnits="userSpaceOnUse"
       id="clipPath1688">
      <path
         d="m 1246.553,564.9637 h 54.7928 v 33.01195 h -54.7928 z"
         id="path1686" />
    </clipPath>
    <clipPath
       clipPathUnits="userSpaceOnUse"
       id="clipPath1698">
      <path
         d="m 1282.802,564.7204 h 54.7928 v 33.01195 h -54.7928 z"
         id="path1696" />
    </clipPath>
    <clipPath
       clipPathUnits="userSpaceOnUse"
       id="clipPath1708">
      <path
         d="m 1116.053,228.8449 h 325.8373 V 546.2735 H 1116.053 Z"
         id="path1706" />
    </clipPath>
    <clipPath
       clipPathUnits="userSpaceOnUse"
       id="clipPath1720">
      <path
         d="m 1116.053,228.8449 h 325.8373 V 546.2735 H 1116.053 Z"
         id="path1718" />
    </clipPath>
    <clipPath
       clipPathUnits="userSpaceOnUse"
       id="clipPath1732">
      <path
         d="m 1116.053,228.8449 h 325.8373 V 546.2735 H 1116.053 Z"
         id="path1730" />
    </clipPath>
    <clipPath
       clipPathUnits="userSpaceOnUse"
       id="clipPath1766">
      <path
         d="m 1311.57,240.369 58.945,-113.2781 -30.935,-16.0973 -58.945,113.2781 z"
         id="path1764" />
    </clipPath>
    <clipPath
       clipPathUnits="userSpaceOnUse"
       id="clipPath1772">
      <path
         d="M 0,0 H 1920 V 1080 H 0 Z"
         id="path1770" />
    </clipPath>
    <clipPath
       clipPathUnits="userSpaceOnUse"
       id="clipPath1822">
      <path
         d="m 1443.12,251.5773 58.945,-113.2782 -30.936,-16.0973 -58.945,113.2781 z"
         id="path1820" />
    </clipPath>
    <clipPath
       clipPathUnits="userSpaceOnUse"
       id="clipPath1828">
      <path
         d="M 0,0 H 1920 V 1080 H 0 Z"
         id="path1826" />
    </clipPath>
    <clipPath
       clipPathUnits="userSpaceOnUse"
       id="clipPath1878">
      <path
         d="m 1376.374,556.2591 57.519,-110.537 -26.837,-13.9647 -57.519,110.537 z"
         id="path1876" />
    </clipPath>
    <clipPath
       clipPathUnits="userSpaceOnUse"
       id="clipPath1884">
      <path
         d="M 0,0 H 1920 V 1080 H 0 Z"
         id="path1882" />
    </clipPath>
    <clipPath
       clipPathUnits="userSpaceOnUse"
       id="clipPath1934">
      <path
         d="M 0,0 H 1920 V 1080 H 0 Z"
         id="path1932" />
    </clipPath>
    <clipPath
       clipPathUnits="userSpaceOnUse"
       id="clipPath1966">
      <path
         d="m 1514.73,228.8449 h 325.8373 V 546.2735 H 1514.73 Z"
         id="path1964" />
    </clipPath>
    <clipPath
       clipPathUnits="userSpaceOnUse"
       id="clipPath1978">
      <path
         d="m 1514.73,228.8449 h 325.8373 V 546.2735 H 1514.73 Z"
         id="path1976" />
    </clipPath>
    <clipPath
       clipPathUnits="userSpaceOnUse"
       id="clipPath1990">
      <path
         d="m 1500.716,214.8305 h 382.8102 v 386.633 H 1500.716 Z"
         id="path1988" />
    </clipPath>
    <clipPath
       clipPathUnits="userSpaceOnUse"
       id="clipPath2006">
      <path
         d="m 1569.123,346.4488 h 54.7928 v 33.01195 h -54.7928 z"
         id="path2004" />
    </clipPath>
    <clipPath
       clipPathUnits="userSpaceOnUse"
       id="clipPath2016">
      <path
         d="m 1500.716,214.8305 h 382.8102 v 386.633 H 1500.716 Z"
         id="path2014" />
    </clipPath>
    <clipPath
       clipPathUnits="userSpaceOnUse"
       id="clipPath2040">
      <path
         d="m 1837.579,378.9989 h 45.9468 v 33.01195 h -45.9468 z"
         id="path2038" />
    </clipPath>
    <clipPath
       clipPathUnits="userSpaceOnUse"
       id="clipPath2050">
      <path
         d="m 1500.716,214.8305 h 382.8102 v 386.633 H 1500.716 Z"
         id="path2048" />
    </clipPath>
    <clipPath
       clipPathUnits="userSpaceOnUse"
       id="clipPath2064">
      <path
         d="m 1614.954,228.2395 h 54.7928 v 33.01195 h -54.7928 z"
         id="path2062" />
    </clipPath>
    <clipPath
       clipPathUnits="userSpaceOnUse"
       id="clipPath2074">
      <path
         d="m 1500.716,214.8305 h 382.8102 v 386.633 H 1500.716 Z"
         id="path2072" />
    </clipPath>
    <clipPath
       clipPathUnits="userSpaceOnUse"
       id="clipPath2094">
      <path
         d="m 1645.23,564.9637 h 54.7928 v 33.01195 H 1645.23 Z"
         id="path2092" />
    </clipPath>
    <clipPath
       clipPathUnits="userSpaceOnUse"
       id="clipPath2104">
      <path
         d="m 1681.479,564.7204 h 54.7928 v 33.01195 h -54.7928 z"
         id="path2102" />
    </clipPath>
    <clipPath
       clipPathUnits="userSpaceOnUse"
       id="clipPath2114">
      <path
         d="m 1514.73,228.8449 h 325.8373 V 546.2735 H 1514.73 Z"
         id="path2112" />
    </clipPath>
    <clipPath
       clipPathUnits="userSpaceOnUse"
       id="clipPath2126">
      <path
         d="m 1514.73,228.8449 h 325.8373 V 546.2735 H 1514.73 Z"
         id="path2124" />
    </clipPath>
    <clipPath
       clipPathUnits="userSpaceOnUse"
       id="clipPath2138">
      <path
         d="m 1514.73,228.8449 h 325.8373 V 546.2735 H 1514.73 Z"
         id="path2136" />
    </clipPath>
    <clipPath
       clipPathUnits="userSpaceOnUse"
       id="clipPath2150">
      <path
         d="m 1500.716,214.8305 h 382.8102 v 386.633 H 1500.716 Z"
         id="path2148" />
    </clipPath>
    <clipPath
       clipPathUnits="userSpaceOnUse"
       id="clipPath2168">
      <path
         d="m 1751.965,390.7188 h 54.7928 v 33.01195 h -54.7928 z"
         id="path2166" />
    </clipPath>
    <clipPath
       clipPathUnits="userSpaceOnUse"
       id="clipPath2178">
      <path
         d="m 1500.716,214.8305 h 382.8102 v 386.633 H 1500.716 Z"
         id="path2176" />
    </clipPath>
    <clipPath
       clipPathUnits="userSpaceOnUse"
       id="clipPath2188">
      <path
         d="m 1677.357,531.1116 h 54.7928 v 33.01195 h -54.7928 z"
         id="path2186" />
    </clipPath>
    <clipPath
       clipPathUnits="userSpaceOnUse"
       id="clipPath2198">
      <path
         d="m 1500.716,214.8305 h 382.8102 v 386.633 H 1500.716 Z"
         id="path2196" />
    </clipPath>
    <clipPath
       clipPathUnits="userSpaceOnUse"
       id="clipPath2208">
      <path
         d="m 1603.852,386.8259 h 54.7928 v 33.01195 h -54.7928 z"
         id="path2206" />
    </clipPath>
    <clipPath
       clipPathUnits="userSpaceOnUse"
       id="clipPath2218">
      <path
         d="m 1843.664,240.369 58.945,-113.2781 -30.935,-16.0973 -58.945,113.2781 z"
         id="path2216" />
    </clipPath>
    <clipPath
       clipPathUnits="userSpaceOnUse"
       id="clipPath2224">
      <path
         d="M 0,0 H 1920 V 1080 H 0 Z"
         id="path2222" />
    </clipPath>
    <clipPath
       clipPathUnits="userSpaceOnUse"
       id="clipPath2274">
      <path
         d="m 1705.12,239.369 58.945,-113.2781 -30.936,-16.0973 -58.945,113.2781 z"
         id="path2272" />
    </clipPath>
    <clipPath
       clipPathUnits="userSpaceOnUse"
       id="clipPath2280">
      <path
         d="M 0,0 H 1920 V 1080 H 0 Z"
         id="path2278" />
    </clipPath>
    <clipPath
       clipPathUnits="userSpaceOnUse"
       id="clipPath2330">
      <path
         d="m 1780.536,546.4772 57.518,-110.5371 -26.118,-13.5908 -57.519,110.537 z"
         id="path2328" />
    </clipPath>
    <clipPath
       clipPathUnits="userSpaceOnUse"
       id="clipPath2336">
      <path
         d="M 0,0 H 1920 V 1080 H 0 Z"
         id="path2334" />
    </clipPath>
    <clipPath
       clipPathUnits="userSpaceOnUse"
       id="clipPath1572-6">
      <path
         d="m 1116.053,228.8449 h 325.8373 V 546.2735 H 1116.053 Z"
         id="path1570-1" />
    </clipPath>
    <clipPath
       clipPathUnits="userSpaceOnUse"
       id="clipPath2150-2">
      <path
         d="m 1500.716,214.8305 h 382.8102 v 386.633 H 1500.716 Z"
         id="path2148-4" />
    </clipPath>
    <clipPath
       clipPathUnits="userSpaceOnUse"
       id="clipPath1744">
      <path
         d="m 1102.039,214.8305 h 382.8102 v 386.633 H 1102.039 Z"
         id="path1742" />
    </clipPath>
  </defs>
  <sodipodi:namedview
     id="base"
     pagecolor="#ffffff"
     bordercolor="#666666"
     borderopacity="1.0"
     inkscape:pageopacity="0.0"
     inkscape:pageshadow="2"
     inkscape:zoom="0.98994949"
     inkscape:cx="676.88043"
     inkscape:cy="149.57664"
     inkscape:document-units="mm"
     inkscape:current-layer="layer3"
     inkscape:document-rotation="0"
     showgrid="false"
     inkscape:window-width="3368"
     inkscape:window-height="1376"
     inkscape:window-x="72"
     inkscape:window-y="27"
     inkscape:window-maximized="1" />
  <metadata
     id="metadata3922">
    <rdf:RDF>
      <cc:Work
         rdf:about="">
        <dc:format>image/svg+xml</dc:format>
        <dc:type
           rdf:resource="http://purl.org/dc/dcmitype/StillImage" />
        <dc:title />
      </cc:Work>
    </rdf:RDF>
  </metadata>
  <g
     inkscape:groupmode="layer"
     id="layer3"
     inkscape:label="anti-quarks"
     style="display:inline"
     transform="translate(-156.63679,-0.80080764)">
    <g
       id="g6901"
       transform="translate(400.81912,-116.08472)">
      <text
         transform="rotate(62.50952)"
         style="font-style:italic;font-variant:normal;font-size:10.5833px;font-family:STIXGeneral;-inkscape-font-specification:STIXGeneral-Italic;writing-mode:lr-tb;fill:#808080;fill-opacity:1;fill-rule:nonzero;stroke:none;stroke-width:0.352778"
         id="text2236"
         x="154.2903"
         y="234.26854"><tspan
           x="154.2903"
           y="234.26854"
           id="tspan2234"
           style="stroke-width:0.352778">Q</tspan></text>
      <text
         transform="rotate(62.50952)"
         style="font-variant:normal;font-weight:normal;font-size:10.5833px;font-family:STIXGeneral;-inkscape-font-specification:STIXGeneral-Regular;writing-mode:lr-tb;fill:#808080;fill-opacity:1;fill-rule:nonzero;stroke:none;stroke-width:0.352778"
         id="text2242"
         x="164.87126"
         y="234.26854"><tspan
           x="164.87126"
           y="234.26854"
           id="tspan2240"
           style="stroke-width:0.352778">=</tspan></text>
      <text
         transform="rotate(62.50952)"
         style="font-variant:normal;font-weight:normal;font-size:10.5833px;font-family:STIXGeneral;-inkscape-font-specification:STIXGeneral-Regular;writing-mode:lr-tb;fill:#808080;fill-opacity:1;fill-rule:nonzero;stroke:none;stroke-width:0.352778"
         id="text2248"
         x="175.06067"
         y="234.26854"><tspan
           x="175.06067"
           y="234.26854"
           id="tspan2246"
           style="stroke-width:0.352778">+</tspan></text>
      <text
         transform="rotate(62.50952)"
         style="font-variant:normal;font-weight:normal;font-size:10.5833px;font-family:STIXGeneral;-inkscape-font-specification:STIXGeneral-Regular;writing-mode:lr-tb;fill:#808080;fill-opacity:1;fill-rule:nonzero;stroke:none;stroke-width:0.352778"
         id="text2254"
         x="184.66209"
         y="234.26854"><tspan
           x="184.66209"
           y="234.26854"
           id="tspan2252"
           style="stroke-width:0.352778">1</tspan></text>
      <text
         transform="rotate(62.50952)"
         style="font-variant:normal;font-weight:normal;font-size:10.5833px;font-family:STIXGeneral;-inkscape-font-specification:STIXGeneral-Regular;writing-mode:lr-tb;fill:#808080;fill-opacity:1;fill-rule:nonzero;stroke:none;stroke-width:0.352778"
         id="text2260"
         x="190.54173"
         y="234.26854"><tspan
           x="190.54173"
           y="234.26854"
           id="tspan2258"
           style="stroke-width:0.352778">/</tspan></text>
      <text
         transform="rotate(62.50952)"
         style="font-variant:normal;font-weight:normal;font-size:10.5833px;font-family:STIXGeneral;-inkscape-font-specification:STIXGeneral-Regular;writing-mode:lr-tb;fill:#808080;fill-opacity:1;fill-rule:nonzero;stroke:none;stroke-width:0.352778"
         id="text2266"
         x="194.07187"
         y="234.26854"><tspan
           x="194.07187"
           y="234.26854"
           id="tspan2264"
           style="stroke-width:0.352778">3</tspan></text>
      <g
         id="g1960"
         transform="matrix(0.35277777,0,0,-0.35277777,-778.27091,324.86478)">
        <g
           id="g1962"
           clip-path="url(#clipPath1966)">
          <g
             id="g1968"
             transform="matrix(1.946459,0,0,1.946459,1500.716,214.8304)">
            <path
               d="M 14.80909,162.8673 98.91316,-1"
               style="fill:none;stroke:#808080;stroke-width:1.5;stroke-linecap:butt;stroke-linejoin:round;stroke-miterlimit:10;stroke-dasharray:5.55, 2.4;stroke-dashoffset:0;stroke-opacity:1"
               id="path1970" />
          </g>
        </g>
      </g>
      <g
         id="g1972"
         transform="matrix(0.35277777,0,0,-0.35277777,-778.27091,324.86478)">
        <g
           id="g1974"
           clip-path="url(#clipPath1978)">
          <g
             id="g1980"
             transform="matrix(1.946459,0,0,1.946459,1500.716,214.8304)">
            <path
               d="M 72.02966,199.634 166.9909,14.61273"
               style="fill:none;stroke:#808080;stroke-width:1.5;stroke-linecap:butt;stroke-linejoin:round;stroke-miterlimit:10;stroke-dasharray:5.55, 2.4;stroke-dashoffset:0;stroke-opacity:1"
               id="path1982" />
          </g>
        </g>
      </g>
      <g
         id="g1984"
         transform="matrix(0.35277777,0,0,-0.35277777,-778.27091,324.86478)">
        <g
           id="g1986"
           clip-path="url(#clipPath1990)">
          <g
             id="g1992"
             transform="matrix(1.946459,0,0,1.946459,1500.716,214.8304)">
            <path
               d="m 52.85455,88.74 v -3.5"
               style="fill:#000000;fill-opacity:1;fill-rule:nonzero;stroke:#000000;stroke-width:0.8;stroke-linecap:butt;stroke-linejoin:round;stroke-miterlimit:10;stroke-dasharray:none;stroke-opacity:1"
               id="path1994" />
          </g>
          <path
             d="m 1606.995,365.1228 h 2.194 v 7.5756 l -2.384,-0.4769 v 1.2263 l 2.37,0.4768 h 1.349 v -8.8018 h 2.194 v -1.1309 h -5.723 v 1.1309"
             style="fill:#000000;fill-opacity:1;fill-rule:nonzero;stroke:none"
             id="path1996" />
          <path
             d="m 1607.922,348.9276 h 4.687 v -1.1309 h -6.308 v 1.1309 c 0.504,0.5178 1.199,1.2263 2.084,2.1255 0.872,0.8857 1.431,1.4579 1.663,1.7168 0.436,0.4769 0.735,0.8857 0.899,1.2263 0.163,0.327 0.259,0.6676 0.259,0.9946 0,0.5178 -0.191,0.9538 -0.559,1.2808 -0.368,0.327 -0.845,0.5041 -1.444,0.5041 -0.423,0 -0.872,-0.0817 -1.336,-0.218 -0.463,-0.1499 -0.967,-0.3679 -1.498,-0.6676 v 1.3625 c 0.545,0.218 1.049,0.3815 1.512,0.4905 0.463,0.109 0.899,0.1635 1.294,0.1635 1.022,0 1.84,-0.2589 2.453,-0.7766 0.613,-0.5178 0.927,-1.199 0.927,-2.0574 0,-0.4088 -0.082,-0.8039 -0.232,-1.1582 -0.15,-0.3679 -0.422,-0.8039 -0.831,-1.2944 -0.109,-0.1362 -0.463,-0.5041 -1.063,-1.1172 -0.6,-0.6132 -1.431,-1.4716 -2.507,-2.5752"
             style="fill:#000000;fill-opacity:1;fill-rule:nonzero;stroke:none"
             id="path1998" />
        </g>
      </g>
      <g
         id="g2000"
         transform="matrix(0.35277777,0,0,-0.35277777,-778.27091,324.86478)">
        <g
           id="g2002"
           clip-path="url(#clipPath2006)">
          <path
             d="m 1591.06,362.3708 h 12.185 v -1.6155 h -12.185 v 1.6155"
             style="fill:#000000;fill-opacity:1;fill-rule:nonzero;stroke:none"
             id="path2008" />
        </g>
      </g>
      <g
         id="g2010"
         transform="matrix(0.35277777,0,0,-0.35277777,-778.27091,324.86478)">
        <g
           id="g2012"
           clip-path="url(#clipPath2016)">
          <path
             d="m 1605.306,359.1257 h 8.6688 v 1.21654 h -8.6688 z"
             style="fill:#000000;fill-opacity:1;fill-rule:nonzero;stroke:none"
             id="path2018" />
          <g
             id="g2020"
             transform="matrix(1.946459,0,0,1.946459,1500.716,214.8304)">
            <path
               d="m 128.9455,88.74 v -3.5"
               style="fill:#000000;fill-opacity:1;fill-rule:nonzero;stroke:#000000;stroke-width:0.8;stroke-linecap:butt;stroke-linejoin:round;stroke-miterlimit:10;stroke-dasharray:none;stroke-opacity:1"
               id="path2022" />
          </g>
          <path
             d="m 1747.553,365.1228 h 2.194 v 7.5756 l -2.385,-0.4769 v 1.2263 l 2.371,0.4768 h 1.349 v -8.8018 h 2.194 v -1.1309 h -5.723 v 1.1309"
             style="fill:#000000;fill-opacity:1;fill-rule:nonzero;stroke:none"
             id="path2024" />
          <path
             d="m 1748.48,348.9276 h 4.687 v -1.1309 h -6.309 v 1.1309 c 0.504,0.5178 1.199,1.2263 2.085,2.1255 0.872,0.8857 1.431,1.4579 1.662,1.7168 0.436,0.4769 0.736,0.8857 0.9,1.2263 0.163,0.327 0.258,0.6676 0.258,0.9946 0,0.5178 -0.19,0.9538 -0.558,1.2808 -0.368,0.327 -0.845,0.5041 -1.445,0.5041 -0.422,0 -0.872,-0.0817 -1.335,-0.218 -0.463,-0.1499 -0.967,-0.3679 -1.499,-0.6676 v 1.3625 c 0.545,0.218 1.05,0.3815 1.513,0.4905 0.463,0.109 0.899,0.1635 1.294,0.1635 1.022,0 1.84,-0.2589 2.453,-0.7766 0.613,-0.5178 0.926,-1.199 0.926,-2.0574 0,-0.4088 -0.081,-0.8039 -0.231,-1.1582 -0.15,-0.3679 -0.423,-0.8039 -0.831,-1.2944 -0.109,-0.1362 -0.464,-0.5041 -1.063,-1.1172 -0.6,-0.6132 -1.431,-1.4716 -2.507,-2.5752"
             style="fill:#000000;fill-opacity:1;fill-rule:nonzero;stroke:none"
             id="path2026" />
          <path
             d="m 1745.864,359.1257 h 8.6688 v 1.21654 h -8.6688 z"
             style="fill:#000000;fill-opacity:1;fill-rule:nonzero;stroke:none"
             id="path2028" />
          <path
             d="m 1847.497,396.4526 h 1.927 l -1.129,-5.8199 h 6.969 l 1.128,5.8199 h 1.927 l -2.763,-14.1897 h -1.927 l 1.323,6.7542 h -6.968 l -1.324,-6.7542 h -1.927 l 2.764,14.1897"
             style="fill:#000000;fill-opacity:1;fill-rule:nonzero;stroke:none"
             id="path2030" />
          <path
             d="m 1860.72,380.2004 h 2.194 v 7.5756 l -2.385,-0.4769 v 1.2263 l 2.371,0.4769 h 1.349 v -8.8019 h 2.194 v -1.1309 h -5.723 v 1.1309"
             style="fill:#000000;fill-opacity:1;fill-rule:nonzero;stroke:none"
             id="path2032" />
        </g>
      </g>
      <g
         id="g2034"
         transform="matrix(0.35277777,0,0,-0.35277777,-778.27091,324.86478)">
        <g
           id="g2036"
           clip-path="url(#clipPath2040)">
          <path
             d="m 1851.905,403.5827 h 1.402 l 2.335,-3.5815 h -1.323 l -1.713,2.3358 -1.713,-2.3358 h -1.323 l 2.335,3.5815 m 0.701,-4.6715 v 0"
             style="fill:#000000;fill-opacity:1;fill-rule:nonzero;stroke:none"
             id="path2042" />
        </g>
      </g>
      <g
         id="g2044"
         transform="matrix(0.35277777,0,0,-0.35277777,-778.27091,324.86478)">
        <g
           id="g2046"
           clip-path="url(#clipPath2050)">
          <g
             id="g2052"
             transform="matrix(1.946459,0,0,1.946459,1500.716,214.8304)">
            <path
               d="M 90.9,14.61273 H 87.4"
               style="fill:#000000;fill-opacity:1;fill-rule:nonzero;stroke:#000000;stroke-width:0.8;stroke-linecap:butt;stroke-linejoin:round;stroke-miterlimit:10;stroke-dasharray:none;stroke-opacity:1"
               id="path2054" />
          </g>
          <path
             d="m 1653.55,238.8672 h 3.134 v 10.8223 l -3.407,-0.6812 v 1.7518 l 3.387,0.6812 h 1.927 v -12.5741 h 3.134 v -1.6156 h -8.175 v 1.6156"
             style="fill:#000000;fill-opacity:1;fill-rule:nonzero;stroke:none"
             id="path2056" />
        </g>
      </g>
      <g
         id="g2058"
         transform="matrix(0.35277777,0,0,-0.35277777,-778.27091,324.86478)">
        <g
           id="g2060"
           clip-path="url(#clipPath2064)">
          <path
             d="m 1636.89,244.1616 h 12.185 v -1.6156 h -12.185 v 1.6156"
             style="fill:#000000;fill-opacity:1;fill-rule:nonzero;stroke:none"
             id="path2066" />
        </g>
      </g>
      <g
         id="g2068"
         transform="matrix(0.35277777,0,0,-0.35277777,-778.27091,324.86478)">
        <g
           id="g2070"
           clip-path="url(#clipPath2074)">
          <g
             id="g2076"
             transform="matrix(1.946459,0,0,1.946459,1500.716,214.8304)">
            <path
               d="M 90.9,162.8673 H 87.4"
               style="fill:#000000;fill-opacity:1;fill-rule:nonzero;stroke:#000000;stroke-width:0.8;stroke-linecap:butt;stroke-linejoin:round;stroke-miterlimit:10;stroke-dasharray:none;stroke-opacity:1"
               id="path2078" />
          </g>
          <path
             d="m 1652.812,527.4387 h 3.134 v 10.8223 l -3.406,-0.6813 v 1.7518 l 3.387,0.6813 h 1.927 v -12.5741 h 3.133 v -1.6156 h -8.175 v 1.6156"
             style="fill:#000000;fill-opacity:1;fill-rule:nonzero;stroke:none"
             id="path2080" />
          <path
             d="m 1664.082,581.7069 -0.37,-1.8686 c -0.642,0.3309 -1.284,0.5839 -1.907,0.7591 -0.623,0.1752 -1.246,0.2725 -1.83,0.2725 -1.148,0 -2.063,-0.253 -2.744,-0.7591 -0.682,-0.5061 -1.012,-1.1679 -1.012,-1.9854 0,-0.4672 0.116,-0.8175 0.369,-1.0511 0.253,-0.253 0.896,-0.5061 1.947,-0.7786 l 1.148,-0.2919 c 1.285,-0.3504 2.2,-0.7786 2.706,-1.2847 0.506,-0.5061 0.759,-1.2263 0.759,-2.1606 0,-1.4404 -0.564,-2.5888 -1.693,-3.4841 -1.129,-0.8954 -2.609,-1.3431 -4.438,-1.3431 -0.759,0 -1.519,0.0779 -2.278,0.2141 -0.759,0.1363 -1.518,0.3504 -2.277,0.6618 l 0.389,1.9854 c 0.701,-0.4477 1.402,-0.7786 2.102,-0.9927 0.701,-0.2336 1.421,-0.3309 2.122,-0.3309 1.187,0 2.141,0.253 2.881,0.798 0.72,0.5256 1.09,1.2263 1.09,2.0828 0,0.5644 -0.156,0.9927 -0.448,1.2846 -0.292,0.292 -0.915,0.5645 -1.849,0.8175 l -1.148,0.292 c -1.324,0.3309 -2.219,0.7202 -2.687,1.1679 -0.486,0.4477 -0.72,1.0705 -0.72,1.888 0,1.4015 0.545,2.5694 1.635,3.4647 1.09,0.8954 2.492,1.3626 4.244,1.3626 0.661,0 1.343,-0.0584 2.004,-0.1752 0.662,-0.1168 1.343,-0.3114 2.005,-0.545"
             style="fill:#000000;fill-opacity:1;fill-rule:nonzero;stroke:none"
             id="path2082" />
          <path
             d="m 1677.446,580.1886 v -5.2943 h 5.295 v -1.6156 h -5.295 v -5.2944 h -1.596 v 5.2944 h -5.294 v 1.6156 h 5.294 v 5.2943 h 1.596"
             style="fill:#000000;fill-opacity:1;fill-rule:nonzero;stroke:none"
             id="path2084" />
          <path
             d="m 1691.884,582.174 h 4.905 c 1.323,0 2.316,-0.253 2.978,-0.7396 0.662,-0.5061 0.993,-1.2458 0.993,-2.2385 0,-0.9148 -0.292,-1.6934 -0.857,-2.3552 -0.564,-0.6618 -1.304,-1.0705 -2.219,-1.2068 0.779,-0.1946 1.363,-0.5255 1.752,-1.0316 0.389,-0.5061 0.603,-1.1679 0.603,-1.9854 0,-1.4404 -0.545,-2.5693 -1.596,-3.3868 -1.051,-0.837 -2.491,-1.2458 -4.321,-1.2458 h -5.002 l 2.764,14.1897 m 0.467,-7.416 -1.012,-5.197 h 3.095 c 1.148,0 2.043,0.253 2.666,0.798 0.623,0.5256 0.954,1.2847 0.954,2.2579 0,0.7397 -0.214,1.2652 -0.623,1.6156 -0.428,0.3503 -1.09,0.5255 -2.005,0.5255 h -3.075 m 1.129,5.8394 -0.837,-4.2822 h 2.861 c 1.012,0 1.81,0.2141 2.394,0.6618 0.565,0.4477 0.857,1.0705 0.857,1.8491 0,0.6034 -0.195,1.0511 -0.584,1.3431 -0.39,0.2725 -1.012,0.4282 -1.849,0.4282 h -2.842"
             style="fill:#000000;fill-opacity:1;fill-rule:nonzero;stroke:none"
             id="path2086" />
        </g>
      </g>
      <g
         id="g2088"
         transform="matrix(0.35277777,0,0,-0.35277777,-778.27091,324.86478)">
        <g
           id="g2090"
           clip-path="url(#clipPath2094)">
          <path
             d="m 1659.556,589.5475 h 1.402 l 2.335,-3.5815 h -1.323 l -1.713,2.3357 -1.713,-2.3357 h -1.324 l 2.336,3.5815 m 0.701,-4.6715 v 0"
             style="fill:#000000;fill-opacity:1;fill-rule:nonzero;stroke:none"
             id="path2096" />
        </g>
      </g>
      <g
         id="g2098"
         transform="matrix(0.35277777,0,0,-0.35277777,-778.27091,324.86478)">
        <g
           id="g2100"
           clip-path="url(#clipPath2104)">
          <path
             d="m 1695.805,589.3042 h 1.402 l 2.335,-3.5815 h -1.323 l -1.713,2.3357 -1.713,-2.3357 h -1.324 l 2.336,3.5815 m 0.701,-4.6716 v 0"
             style="fill:#000000;fill-opacity:1;fill-rule:nonzero;stroke:none"
             id="path2106" />
        </g>
      </g>
      <g
         id="g2108"
         transform="matrix(0.35277777,0,0,-0.35277777,-778.27091,324.86478)">
        <g
           id="g2110"
           clip-path="url(#clipPath2114)">
          <g
             id="g2116"
             transform="matrix(1.946459,0,0,1.946459,1500.716,214.8304)">
            <path
               d="m 128.9455,85.74 c 0.7956,0 1.5587,0.3161 2.1213,0.87868 0.5626,0.56258 0.8787,1.32571 0.8787,2.12132 0,0.79561 -0.3161,1.55874 -0.8787,2.12132 -0.5626,0.56258 -1.3257,0.87868 -2.1213,0.87868 -0.7957,0 -1.5588,-0.3161 -2.1214,-0.87868 -0.5625,-0.56258 -0.8786,-1.32571 -0.8786,-2.12132 0,-0.79561 0.3161,-1.55874 0.8786,-2.12132 0.5626,-0.56258 1.3257,-0.87868 2.1214,-0.87868 z"
               style="fill:#000000;fill-opacity:1;fill-rule:nonzero;stroke:#000000;stroke-width:1;stroke-linecap:butt;stroke-linejoin:round;stroke-miterlimit:10;stroke-dasharray:none;stroke-opacity:1"
               id="path2118" />
          </g>
        </g>
      </g>
      <g
         id="g2120"
         transform="matrix(0.35277777,0,0,-0.35277777,-778.27091,324.86478)">
        <g
           id="g2122"
           clip-path="url(#clipPath2126)">
          <g
             id="g2128"
             transform="matrix(1.946459,0,0,1.946459,1500.716,214.8304)">
            <path
               d="m 90.9,159.8673 c 0.79561,0 1.55874,0.3161 2.12132,0.8787 0.56258,0.5625 0.87868,1.3257 0.87868,2.1213 0,0.7956 -0.3161,1.5587 -0.87868,2.1213 -0.56258,0.5626 -1.32571,0.8787 -2.12132,0.8787 -0.79561,0 -1.55874,-0.3161 -2.12132,-0.8787 C 88.2161,164.426 87.9,163.6629 87.9,162.8673 c 0,-0.7956 0.3161,-1.5588 0.87868,-2.1213 0.56258,-0.5626 1.32571,-0.8787 2.12132,-0.8787 z"
               style="fill:#000000;fill-opacity:1;fill-rule:nonzero;stroke:#000000;stroke-width:1;stroke-linecap:butt;stroke-linejoin:round;stroke-miterlimit:10;stroke-dasharray:none;stroke-opacity:1"
               id="path2130" />
          </g>
        </g>
      </g>
      <g
         id="g2132"
         transform="matrix(0.35277777,0,0,-0.35277777,-778.27091,324.86478)">
        <g
           id="g2134"
           clip-path="url(#clipPath2138)">
          <g
             id="g2140"
             transform="matrix(1.946459,0,0,1.946459,1500.716,214.8304)">
            <path
               d="m 52.85455,85.74 c 0.79561,0 1.55874,0.3161 2.12132,0.87868 0.56258,0.56258 0.87868,1.32571 0.87868,2.12132 0,0.79561 -0.3161,1.55874 -0.87868,2.12132 -0.56258,0.56258 -1.32571,0.87868 -2.12132,0.87868 -0.79561,0 -1.55874,-0.3161 -2.12132,-0.87868 -0.56259,-0.56258 -0.87868,-1.32571 -0.87868,-2.12132 0,-0.79561 0.31609,-1.55874 0.87868,-2.12132 C 51.29581,86.0561 52.05894,85.74 52.85455,85.74 Z"
               style="fill:#000000;fill-opacity:1;fill-rule:nonzero;stroke:#000000;stroke-width:1;stroke-linecap:butt;stroke-linejoin:round;stroke-miterlimit:10;stroke-dasharray:none;stroke-opacity:1"
               id="path2142" />
          </g>
        </g>
      </g>
      <g
         id="g2144"
         transform="matrix(0.35277777,0,0,-0.35277777,-778.27091,324.86478)">
        <g
           id="g2146"
           clip-path="url(#clipPath2150)">
          <g
             id="g2152"
             transform="matrix(1.946459,0,0,1.946459,1500.716,214.8304)">
            <path
               d="M 90.9,7.2 V 170.28"
               style="fill:none;stroke:#000000;stroke-width:0.8;stroke-linecap:square;stroke-linejoin:miter;stroke-miterlimit:10;stroke-dasharray:none;stroke-opacity:1"
               id="path2154" />
          </g>
          <g
             id="g2156"
             transform="matrix(1.946459,0,0,1.946459,1500.716,214.8304)">
            <path
               d="M 7.2,88.74 H 174.6"
               style="fill:none;stroke:#000000;stroke-width:0.8;stroke-linecap:square;stroke-linejoin:miter;stroke-miterlimit:10;stroke-dasharray:none;stroke-opacity:1"
               id="path2158" />
          </g>
          <path
             d="m 1767.245,397.2212 c -0.468,-0.6229 -1.032,-1.0706 -1.674,-1.382 -0.643,-0.3114 -1.343,-0.4672 -2.122,-0.4672 -1.071,0 -1.907,0.3504 -2.53,1.0706 -0.623,0.7202 -0.915,1.7129 -0.915,2.9781 0,1.0511 0.175,2.0438 0.564,2.9975 0.37,0.9538 0.915,1.8102 1.616,2.5694 0.467,0.506 0.993,0.8759 1.576,1.1484 0.584,0.253 1.207,0.3893 1.869,0.3893 0.681,0 1.285,-0.1752 1.81,-0.5061 0.506,-0.3309 0.915,-0.7981 1.207,-1.4015 l 1.148,5.8005 h 1.752 l -2.88,-14.7931 h -1.752 l 0.331,1.5961 m -5.431,2.5109 c 0,-0.9343 0.195,-1.6545 0.623,-2.1606 0.409,-0.506 0.993,-0.7591 1.732,-0.7591 0.545,0 1.051,0.1168 1.518,0.3893 0.468,0.2725 0.876,0.6618 1.227,1.1679 0.37,0.5255 0.662,1.1484 0.876,1.8491 0.214,0.7008 0.331,1.382 0.331,2.0633 0,0.8759 -0.215,1.5571 -0.623,2.0632 -0.429,0.4866 -0.993,0.7397 -1.713,0.7397 -0.565,0 -1.09,-0.1363 -1.557,-0.3893 -0.468,-0.2725 -0.876,-0.6423 -1.207,-1.129 -0.37,-0.5255 -0.662,-1.1289 -0.876,-1.8296 -0.234,-0.7008 -0.331,-1.382 -0.331,-2.0049"
             style="fill:#000000;fill-opacity:1;fill-rule:nonzero;stroke:none"
             id="path2160" />
        </g>
      </g>
      <g
         id="g2162"
         transform="matrix(0.35277777,0,0,-0.35277777,-778.27091,324.86478)">
        <g
           id="g2164"
           clip-path="url(#clipPath2168)">
          <path
             d="m 1764.189,414.232 h 5.683 v -1.4014 h -5.683 v 1.4014"
             style="fill:#000000;fill-opacity:1;fill-rule:nonzero;stroke:none"
             id="path2170" />
        </g>
      </g>
      <g
         id="g2172"
         transform="matrix(0.35277777,0,0,-0.35277777,-778.27091,324.86478)">
        <g
           id="g2174"
           clip-path="url(#clipPath2178)">
          <path
             d="m 1694.787,550.2465 -0.331,-1.6545 c -0.467,0.2336 -0.973,0.4282 -1.479,0.5645 -0.506,0.1168 -1.032,0.1946 -1.577,0.1946 -0.934,0 -1.655,-0.1557 -2.18,-0.4671 -0.526,-0.3114 -0.779,-0.7397 -0.779,-1.2847 0,-0.6228 0.604,-1.1094 1.849,-1.4403 0.078,-0.039 0.156,-0.0584 0.195,-0.0584 l 0.565,-0.1752 c 1.167,-0.3309 1.946,-0.6813 2.335,-1.0316 0.39,-0.3504 0.584,-0.837 0.584,-1.4404 0,-1.129 -0.447,-2.0438 -1.343,-2.7445 -0.895,-0.7008 -2.082,-1.0511 -3.523,-1.0511 -0.564,0 -1.148,0.0584 -1.771,0.1557 -0.623,0.0973 -1.324,0.253 -2.063,0.4866 l 0.35,1.8102 c 0.623,-0.3503 1.265,-0.6034 1.888,-0.7591 0.623,-0.1752 1.207,-0.253 1.791,-0.253 0.856,0 1.537,0.1751 2.082,0.545 0.526,0.3698 0.799,0.8369 0.799,1.4014 0,0.6034 -0.701,1.09 -2.103,1.4793 l -0.175,0.039 -0.603,0.1557 c -0.896,0.2335 -1.557,0.5255 -1.966,0.9148 -0.409,0.3893 -0.604,0.8759 -0.604,1.4793 0,1.129 0.409,2.0438 1.266,2.7056 0.856,0.6618 2.005,0.9927 3.484,0.9927 0.584,0 1.148,-0.0584 1.693,-0.1557 0.545,-0.0973 1.071,-0.2336 1.616,-0.4088"
             style="fill:#000000;fill-opacity:1;fill-rule:nonzero;stroke:none"
             id="path2180" />
        </g>
      </g>
      <g
         id="g2182"
         transform="matrix(0.35277777,0,0,-0.35277777,-778.27091,324.86478)">
        <g
           id="g2184"
           clip-path="url(#clipPath2188)">
          <path
             d="m 1689.581,554.6248 h 5.684 v -1.4014 h -5.684 v 1.4014"
             style="fill:#000000;fill-opacity:1;fill-rule:nonzero;stroke:none"
             id="path2190" />
        </g>
      </g>
      <g
         id="g2192"
         transform="matrix(0.35277777,0,0,-0.35277777,-778.27091,324.86478)">
        <g
           id="g2194"
           clip-path="url(#clipPath2198)">
          <path
             d="m 1612.305,400.0922 1.245,6.4233 h 1.752 l -1.245,-6.3649 c -0.078,-0.3114 -0.117,-0.5839 -0.137,-0.798 -0.039,-0.2336 -0.039,-0.4088 -0.039,-0.5451 0,-0.545 0.156,-0.9732 0.487,-1.2651 0.331,-0.292 0.798,-0.4283 1.401,-0.4283 0.935,0 1.733,0.3115 2.433,0.9538 0.682,0.6229 1.129,1.4793 1.344,2.5499 l 1.167,5.8977 h 1.752 l -2.063,-10.6471 h -1.752 l 0.351,1.674 c -0.507,-0.6229 -1.091,-1.1095 -1.772,-1.4404 -0.681,-0.3115 -1.401,-0.4866 -2.16,-0.4866 -0.935,0 -1.674,0.253 -2.18,0.7396 -0.526,0.5061 -0.779,1.2068 -0.779,2.1411 0,0.1752 0,0.4088 0.039,0.7007 0.039,0.2725 0.078,0.584 0.156,0.8954"
             style="fill:#000000;fill-opacity:1;fill-rule:nonzero;stroke:none"
             id="path2200" />
        </g>
      </g>
      <g
         id="g2202"
         transform="matrix(0.35277777,0,0,-0.35277777,-778.27091,324.86478)">
        <g
           id="g2204"
           clip-path="url(#clipPath2208)">
          <path
             d="m 1616.076,410.3391 h 5.684 v -1.4014 h -5.684 v 1.4014"
             style="fill:#000000;fill-opacity:1;fill-rule:nonzero;stroke:none"
             id="path2210" />
        </g>
      </g>
      <g
         id="g2288"
         transform="matrix(0.16284265,0.31294477,0.31294477,-0.16284265,-194.70944,250.16753)">
        <text
           transform="matrix(1,0,0,-1,0,29.51981)"
           style="font-style:italic;font-variant:normal;font-size:30px;font-family:STIXGeneral;-inkscape-font-specification:STIXGeneral-Italic;writing-mode:lr-tb;fill:#808080;fill-opacity:1;fill-rule:nonzero;stroke:none"
           id="text2292"><tspan
             x="0"
             y="0"
             id="tspan2290">Q</tspan></text>
      </g>
      <g
         id="g2294"
         transform="matrix(0.16284265,0.31294477,0.31294477,-0.16284265,-194.70944,250.16753)">
        <text
           transform="matrix(1,0,0,-1,29.99333,29.51981)"
           style="font-variant:normal;font-weight:normal;font-size:30px;font-family:STIXGeneral;-inkscape-font-specification:STIXGeneral-Regular;writing-mode:lr-tb;fill:#808080;fill-opacity:1;fill-rule:nonzero;stroke:none"
           id="text2298"><tspan
             x="0"
             y="0"
             id="tspan2296">=</tspan></text>
      </g>
      <g
         id="g2300"
         transform="matrix(0.16284265,0.31294477,0.31294477,-0.16284265,-194.70944,250.16753)">
        <text
           transform="matrix(1,0,0,-1,58.87667,29.51981)"
           style="font-variant:normal;font-weight:normal;font-size:30px;font-family:STIXGeneral;-inkscape-font-specification:STIXGeneral-Regular;writing-mode:lr-tb;fill:#808080;fill-opacity:1;fill-rule:nonzero;stroke:none"
           id="text2304"><tspan
             x="0"
             y="0"
             id="tspan2302">−</tspan></text>
      </g>
      <g
         id="g2306"
         transform="matrix(0.16284265,0.31294477,0.31294477,-0.16284265,-194.70944,250.16753)">
        <text
           transform="matrix(1,0,0,-1,86.09333,29.51981)"
           style="font-variant:normal;font-weight:normal;font-size:30px;font-family:STIXGeneral;-inkscape-font-specification:STIXGeneral-Regular;writing-mode:lr-tb;fill:#808080;fill-opacity:1;fill-rule:nonzero;stroke:none"
           id="text2310"><tspan
             x="0"
             y="0"
             id="tspan2308">2</tspan></text>
      </g>
      <g
         id="g2312"
         transform="matrix(0.16284265,0.31294477,0.31294477,-0.16284265,-194.70944,250.16753)">
        <text
           transform="matrix(1,0,0,-1,102.76,29.51981)"
           style="font-variant:normal;font-weight:normal;font-size:30px;font-family:STIXGeneral;-inkscape-font-specification:STIXGeneral-Regular;writing-mode:lr-tb;fill:#808080;fill-opacity:1;fill-rule:nonzero;stroke:none"
           id="text2316"><tspan
             x="0"
             y="0"
             id="tspan2314">/</tspan></text>
      </g>
      <g
         id="g2318"
         transform="matrix(0.16284265,0.31294477,0.31294477,-0.16284265,-194.70944,250.16753)">
        <text
           transform="matrix(1,0,0,-1,112.7667,29.51981)"
           style="font-variant:normal;font-weight:normal;font-size:30px;font-family:STIXGeneral;-inkscape-font-specification:STIXGeneral-Regular;writing-mode:lr-tb;fill:#808080;fill-opacity:1;fill-rule:nonzero;stroke:none"
           id="text2322"><tspan
             x="0"
             y="0"
             id="tspan2320">3</tspan></text>
      </g>
      <g
         id="g2344"
         transform="matrix(0.16284263,0.31294477,0.31294477,-0.16284263,-167.94316,141.83826)">
        <text
           transform="matrix(1,0,0,-1,0,29.51981)"
           style="font-style:italic;font-variant:normal;font-size:30px;font-family:STIXGeneral;-inkscape-font-specification:STIXGeneral-Italic;writing-mode:lr-tb;fill:#000000;fill-opacity:1;fill-rule:nonzero;stroke:none"
           id="text2348"><tspan
             x="0"
             y="0"
             id="tspan2346">B</tspan></text>
      </g>
      <g
         id="g2350"
         transform="matrix(0.16284263,0.31294477,0.31294477,-0.16284263,-167.94316,141.83826)">
        <text
           transform="matrix(1,0,0,-1,26.66333,29.51981)"
           style="font-variant:normal;font-weight:normal;font-size:30px;font-family:STIXGeneral;-inkscape-font-specification:STIXGeneral-Regular;writing-mode:lr-tb;fill:#000000;fill-opacity:1;fill-rule:nonzero;stroke:none"
           id="text2354"><tspan
             x="0"
             y="0"
             id="tspan2352">=</tspan></text>
      </g>
      <g
         id="g2356"
         transform="matrix(0.16284263,0.31294477,0.31294477,-0.16284263,-167.94316,141.83826)">
        <text
           transform="matrix(1,0,0,-1,55.54667,29.51981)"
           style="font-variant:normal;font-weight:normal;font-size:30px;font-family:STIXGeneral;-inkscape-font-specification:STIXGeneral-Regular;writing-mode:lr-tb;fill:#000000;fill-opacity:1;fill-rule:nonzero;stroke:none"
           id="text2360"><tspan
             x="0"
             y="0"
             id="tspan2358">−</tspan></text>
      </g>
      <g
         id="g2362"
         transform="matrix(0.16284263,0.31294477,0.31294477,-0.16284263,-167.94316,141.83826)">
        <text
           transform="matrix(1,0,0,-1,82.76333,29.51981)"
           style="font-variant:normal;font-weight:normal;font-size:30px;font-family:STIXGeneral;-inkscape-font-specification:STIXGeneral-Regular;writing-mode:lr-tb;fill:#000000;fill-opacity:1;fill-rule:nonzero;stroke:none"
           id="text2366"><tspan
             x="0"
             y="0"
             id="tspan2364">1</tspan></text>
      </g>
      <g
         id="g2368"
         transform="matrix(0.16284263,0.31294477,0.31294477,-0.16284263,-167.94316,141.83826)">
        <text
           transform="matrix(1,0,0,-1,99.43,29.51981)"
           style="font-variant:normal;font-weight:normal;font-size:30px;font-family:STIXGeneral;-inkscape-font-specification:STIXGeneral-Regular;writing-mode:lr-tb;fill:#000000;fill-opacity:1;fill-rule:nonzero;stroke:none"
           id="text2372"><tspan
             x="0"
             y="0"
             id="tspan2370">/</tspan></text>
      </g>
      <g
         id="g2374"
         transform="matrix(0.16284263,0.31294477,0.31294477,-0.16284263,-167.94316,141.83826)">
        <text
           transform="matrix(1,0,0,-1,109.4367,29.51981)"
           style="font-variant:normal;font-weight:normal;font-size:30px;font-family:STIXGeneral;-inkscape-font-specification:STIXGeneral-Regular;writing-mode:lr-tb;fill:#000000;fill-opacity:1;fill-rule:nonzero;stroke:none"
           id="text2378"><tspan
             x="0"
             y="0"
             id="tspan2376">3</tspan></text>
      </g>
    </g>
  </g>
</svg>
